<svg width="68" height="68" viewBox="0 0 68 68" fill="none" xmlns="http://www.w3.org/2000/svg">
<rect width="68" height="68" rx="6" fill="black"/>
<path d="M28.9696 48C31.5048 48 33.5624 45.9094 33.5624 43.3334V38.6667H28.9696C26.4344 38.6667 24.3768 40.7574 24.3768 43.3334C24.3768 45.9094 26.4344 48 28.9696 48Z" fill="#0ACF83"/>
<path d="M24.3768 33.9999C24.3768 31.4239 26.4344 29.3333 28.9696 29.3333H33.5624V38.6665H28.9696C26.4344 38.6665 24.3768 36.5759 24.3768 33.9999Z" fill="#A259FF"/>
<path d="M24.3772 24.6667C24.3772 22.0907 26.4348 20 28.97 20H33.5628V29.3333H28.97C26.4348 29.3333 24.3772 27.2427 24.3772 24.6667Z" fill="#F24E1E"/>
<path d="M33.5625 20H38.1554C40.6906 20 42.7482 22.0907 42.7482 24.6667C42.7482 27.2427 40.6906 29.3333 38.1554 29.3333H33.5625V20Z" fill="#FF7262"/>
<path d="M42.7482 33.9999C42.7482 36.5759 40.6906 38.6665 38.1554 38.6665C35.6201 38.6665 33.5625 36.5759 33.5625 33.9999C33.5625 31.4239 35.6201 29.3333 38.1554 29.3333C40.6906 29.3333 42.7482 31.4239 42.7482 33.9999Z" fill="#1ABCFE"/>
</svg>
