<svg width="68" height="68" viewBox="0 0 68 68" fill="none" xmlns="http://www.w3.org/2000/svg">
<rect width="68" height="68" rx="6" fill="#6FDA44"/>
<path d="M41.564 35.3285C40.2965 35.3285 39.1088 34.7931 38.0297 33.9216L38.2925 32.6914L38.3039 32.6458C38.5379 31.3359 39.2802 29.1372 41.564 29.1372C43.2768 29.1372 44.67 30.527 44.67 32.2356C44.6643 33.9387 43.2712 35.3285 41.564 35.3285ZM41.564 25.9989C38.6463 25.9989 36.3855 27.8899 35.4663 30.9997C34.0617 28.898 32.9996 26.3748 32.3774 24.2502H29.2371V32.4008C29.2371 34.007 27.9239 35.3169 26.3137 35.3169C24.7036 35.3169 23.3905 34.007 23.3905 32.4008V24.2502H20.25V32.4008C20.2386 35.7386 22.962 38.4782 26.3078 38.4782C29.6537 38.4782 32.3772 35.7386 32.3772 32.4008V31.0339C32.9881 32.304 33.736 33.5855 34.6439 34.7248L32.7197 43.7467H35.9343L37.3273 37.2023C38.5491 37.9826 39.9538 38.4726 41.5639 38.4726C45.0067 38.4726 47.8102 35.6589 47.8102 32.2242C47.8102 28.7954 45.0067 25.9989 41.5639 25.9989H41.564Z" fill="white"/>
</svg>
