<svg width="68" height="68" viewBox="0 0 68 68" fill="none" xmlns="http://www.w3.org/2000/svg">
<rect width="68" height="68" rx="6" fill="#EB524F"/>
<g clip-path="url(#clip0_1647_32221)">
<path d="M29.5242 22.5735C30.7723 22.9623 31.1596 23.9667 31.1596 25.1115C31.1489 26.0187 31.0413 26.9259 30.8261 27.8116C30.3634 29.8312 29.7932 31.8292 29.3198 33.8381C28.9325 35.4905 28.5774 37.1645 28.5667 38.871C28.5774 39.3354 28.6527 39.7998 28.7818 40.2426C29.0293 41.1282 29.7717 41.193 30.3312 40.653C30.6862 40.3074 31.009 39.9402 31.2995 39.5406C32.6982 37.6721 33.9355 35.6849 34.9899 33.6005C36.012 31.6024 38.3467 27.0879 38.4866 26.8179C39.2182 25.4679 41.2409 25.6947 41.8542 27.0123C42.1985 27.7252 42.3922 28.5136 42.4244 29.302C42.4782 31.0084 42.6396 35.7713 42.7149 36.4517C42.8548 37.7693 43.694 38.1905 44.813 37.4561C45.4908 37.0133 46.1041 36.4517 46.7173 35.9225C47.2876 35.4149 47.5888 35.4689 47.8686 36.1817C48.116 36.8081 48.0084 37.4345 47.804 38.0285C47.1154 40.0374 45.6199 41.1066 43.6295 41.5386C42.9947 41.679 42.3384 41.6898 41.6928 41.5818C40.2618 41.3442 39.3473 40.5126 38.7986 39.2274C38.2714 37.9853 38.11 34.4537 37.9917 34.0001C37.798 34.4105 35.5063 39.1518 34.3013 40.9554C33.5481 42.111 32.6336 43.1586 31.5792 44.055C30.5356 44.9299 29.3521 45.4699 27.9641 45.5023C26.2857 45.5455 25.0699 44.7787 24.2307 43.353C23.6928 42.435 23.4668 41.409 23.3915 40.3506C23.2839 38.871 23.5206 37.4237 23.8434 35.9765C23.951 35.5121 24.0263 35.0369 24.1447 34.4429C23.682 34.6805 23.3808 34.8965 23.0365 35.0153C22.6276 35.1557 22.1865 35.2961 21.7561 35.2853C20.2283 35.2421 20.0024 33.5465 20.0024 33.2657C20.5188 32.866 21.0675 32.4988 21.5409 32.0668C23.8004 30.0148 25.5003 27.5524 26.7268 24.7659C27.1357 23.8479 27.6414 23.0595 28.5451 22.5735C28.8464 22.4439 29.1154 22.4331 29.5242 22.5735Z" fill="white"/>
</g>
<defs>
<clipPath id="clip0_1647_32221">
<rect width="28" height="28" fill="white" transform="translate(20 20)"/>
</clipPath>
</defs>
</svg>
