<svg width="56" height="56" viewBox="0 0 56 56" fill="none" xmlns="http://www.w3.org/2000/svg">
<rect width="56" height="56" rx="4" fill="#1E60C6"/>
<path d="M20.1774 32.1007C20.0872 31.6127 19.9699 31.1337 19.9067 30.6456C19.6541 28.7386 20.0601 26.9762 21.1879 25.4036C22.0721 24.1654 23.2811 23.3068 24.6706 22.7103C26.3398 21.9963 28.1353 21.6076 29.9488 21.5715C31.5638 21.5263 32.9714 22.1228 34.1984 23.1351C35.4616 24.1835 36.436 25.4759 37.1849 26.931C37.5458 27.636 37.8796 28.359 38.2225 29.0821C38.2586 29.1634 38.2856 29.2538 38.3037 29.3442C37.8255 29.6334 37.3653 29.9316 36.8781 30.1937C35.0736 31.1879 33.1247 31.8658 31.0947 32.2182C29.9849 32.408 28.8661 32.5165 27.7473 32.5888C26.6826 32.6611 25.618 32.6972 24.5533 32.6701C23.1007 32.634 21.6571 32.408 20.1774 32.1007ZM22.4691 27.2564C22.442 28.8471 23.7323 30.1305 25.3022 30.1485C26.818 30.1666 28.2345 29.0007 28.2345 27.2925C28.2345 25.5211 26.8721 24.4004 25.3473 24.4004C23.7684 24.4004 22.4781 25.6747 22.4691 27.2564ZM33.5578 28.0879C34.415 28.1511 35.3714 27.4371 35.3804 26.2622C35.3894 25.2861 34.6044 24.4908 33.63 24.4817H33.5939C32.6014 24.4636 31.7894 25.259 31.7714 26.2441V26.2712C31.7714 27.3016 32.5383 28.0879 33.5578 28.0879Z" fill="white"/>
<path d="M38.3578 29.751C38.4841 31.2694 38.1052 32.607 37.3473 33.8361C36.3187 35.4991 34.7849 36.5475 32.9804 37.2073C31.1398 37.8761 29.1819 38.1382 27.233 37.9936C26.0691 37.9123 24.8962 37.7405 23.8496 37.1892C22.0451 36.2312 20.9263 34.7038 20.3398 32.7606C20.3127 32.6431 20.3037 32.5166 20.2947 32.3991C26.6556 33.8723 32.6917 33.2216 38.3578 29.751Z" fill="white"/>
<path d="M38.0601 24.2288C38.5293 24.0571 38.5293 24.048 38.4842 23.6052C38.4571 23.3521 38.4481 23.099 38.5744 22.855C38.6285 22.7556 38.6195 22.6291 38.6285 22.5116C38.6466 22.1501 38.9443 21.8699 39.3052 21.8699C39.6661 21.8699 39.9729 22.1591 39.991 22.5206C39.991 22.8821 39.7022 23.1804 39.3413 23.1985C39.224 23.2075 39.1067 23.1985 38.9443 23.1985C38.9263 23.3792 38.8902 23.5419 38.9082 23.6955C38.9624 24.1384 38.8902 24.509 38.3849 24.6988L39.4135 26.5244L37.8707 27.4825C37.221 25.9731 36.2285 24.7259 35.0376 23.5871L35.9579 22.4664C36.815 22.8731 37.4556 23.5238 38.0601 24.2288ZM19.4917 29.8233L17.994 29.3172C17.9218 28.4134 18.1113 27.5728 18.4451 26.7504L17.9218 25.9189C17.7323 25.9189 17.5428 25.955 17.3804 25.9099C17.0195 25.8285 16.6677 25.7201 16.3338 25.5845C16.0722 25.476 15.9549 25.1145 16.027 24.8524C16.1263 24.5361 16.424 24.3372 16.7489 24.3644C17.0556 24.3915 17.3083 24.6265 17.3534 24.9337C17.3714 25.0784 17.3534 25.232 17.3534 25.4128H18.1473C18.4812 25.5483 18.4631 25.955 18.7158 26.2171C19.212 25.5664 19.6992 24.9157 20.4391 24.4547L21.1248 24.988C20.6015 25.711 20.0421 26.3889 19.8526 27.2294C19.6631 28.079 19.609 28.9285 19.4917 29.8233Z" fill="white"/>
<path d="M25.6271 22.1951L25.3203 21.4359C26.1684 20.7581 27.1338 20.4779 28.1534 20.3423C28.1714 20.0712 28.0361 19.9537 27.8286 19.8453C27.1248 19.4837 27.0075 18.6342 27.5669 18.119C27.9008 17.8117 28.2978 17.7665 28.6947 17.9202C29.0556 18.0467 29.3083 18.3811 29.3353 18.7697C29.3985 19.1855 29.2 19.5922 28.8391 19.8001C28.7399 19.8543 28.6316 19.8995 28.5323 19.9447L28.6406 20.2881C29.5519 20.27 30.4451 20.2791 31.3293 20.6316L31.203 21.3817C29.3353 21.3908 27.4406 21.2913 25.6271 22.1951Z" fill="white"/>
</svg>
