<svg width="56" height="56" viewBox="0 0 56 56" fill="none" xmlns="http://www.w3.org/2000/svg">
<rect width="56" height="56" rx="4" fill="#EA4C89"/>
<g clip-path="url(#clip0_1647_32442)">
<path d="M16 28C16 25.824 16.536 23.816 17.608 21.976C18.68 20.136 20.136 18.68 21.976 17.608C23.816 16.536 25.824 16 28 16C30.176 16 32.184 16.536 34.024 17.608C35.864 18.68 37.32 20.136 38.392 21.976C39.464 23.816 40 25.824 40 28C40 30.176 39.464 32.184 38.392 34.024C37.32 35.864 35.864 37.32 34.024 38.392C32.184 39.464 30.176 40 28 40C25.824 40 23.816 39.464 21.976 38.392C20.136 37.32 18.68 35.864 17.608 34.024C16.536 32.184 16 30.176 16 28ZM17.992 28C17.992 30.496 18.832 32.696 20.512 34.6C21.28 33.096 22.496 31.664 24.16 30.304C25.824 28.944 27.448 28.088 29.032 27.736C28.792 27.176 28.56 26.672 28.336 26.224C25.584 27.104 22.608 27.544 19.408 27.544C18.784 27.544 18.32 27.536 18.016 27.52C18.016 27.584 18.012 27.664 18.004 27.76C17.996 27.856 17.992 27.936 17.992 28ZM18.304 25.528C18.656 25.56 19.176 25.576 19.864 25.576C22.536 25.576 25.072 25.216 27.472 24.496C26.256 22.336 24.92 20.536 23.464 19.096C22.2 19.736 21.116 20.624 20.212 21.76C19.308 22.896 18.672 24.152 18.304 25.528ZM21.88 35.896C23.688 37.304 25.728 38.008 28 38.008C29.184 38.008 30.36 37.784 31.528 37.336C31.208 34.6 30.584 31.952 29.656 29.392C28.184 29.712 26.7 30.52 25.204 31.816C23.708 33.112 22.6 34.472 21.88 35.896ZM25.552 18.328C26.96 19.784 28.264 21.6 29.464 23.776C31.64 22.864 33.28 21.704 34.384 20.296C32.528 18.76 30.4 17.992 28 17.992C27.184 17.992 26.368 18.104 25.552 18.328ZM30.328 25.48C30.568 25.992 30.84 26.64 31.144 27.424C32.328 27.312 33.616 27.256 35.008 27.256C36 27.256 36.984 27.28 37.96 27.328C37.832 25.152 37.048 23.216 35.608 21.52C34.568 23.072 32.808 24.392 30.328 25.48ZM31.744 29.104C32.56 31.472 33.112 33.904 33.4 36.4C34.664 35.584 35.696 34.536 36.496 33.256C37.296 31.976 37.776 30.592 37.936 29.104C36.768 29.024 35.704 28.984 34.744 28.984C33.864 28.984 32.864 29.024 31.744 29.104Z" fill="white"/>
</g>
<defs>
<clipPath id="clip0_1647_32442">
<rect width="24" height="24" fill="white" transform="translate(16 16)"/>
</clipPath>
</defs>
</svg>
