<svg width="68" height="68" viewBox="0 0 68 68" fill="none" xmlns="http://www.w3.org/2000/svg">
<rect width="68" height="68" rx="6" fill="#191F33"/>
<path d="M35.1808 22.437C37.0196 20.0123 39.5759 20.0005 39.5759 20.0005C39.5759 20.0005 39.9562 22.2801 38.1294 24.4761C36.1789 26.821 33.9619 26.4373 33.9619 26.4373C33.9619 26.4373 33.5456 24.5932 35.1808 22.437ZM34.1958 28.0342C35.1418 28.0342 36.8974 26.7332 39.1826 26.7332C43.1163 26.7332 44.6637 29.5336 44.6637 29.5336C44.6637 29.5336 41.6371 31.0818 41.6371 34.8383C41.6371 39.0761 45.4075 40.5365 45.4075 40.5365C45.4075 40.5365 42.7719 47.9582 39.2119 47.9582C37.5769 47.9582 36.3057 46.8559 34.5829 46.8559C32.8272 46.8559 31.085 47.9994 29.9503 47.9994C26.6995 47.9995 22.5927 40.9592 22.5927 35.2999C22.5927 29.7321 26.0688 26.8113 29.3294 26.8113C31.449 26.8113 33.0938 28.0342 34.1958 28.0342Z" fill="white"/>
</svg>
